<svg class="svg-icon" style="width: 1em; height: 1em;vertical-align: middle;fill: currentColor;overflow: hidden;" viewBox="0 0 1024 1024" version="1.1" xmlns="http://www.w3.org/2000/svg"><path d="M0 0h1024v1024H0z" fill="#D8D8D8" fill-opacity="0" /><path d="M505.813333 779.818667c14.677333 0 26.794667 10.794667 28.885334 24.832l0.298666 4.309333v143.232a29.141333 29.141333 0 0 1-58.026666 4.266667l-0.298667-4.266667V808.96c0-16.085333 13.056-29.141333 29.141333-29.141333z m246.016-71.466667l3.626667 3.072 101.546667 100.949333a29.141333 29.141333 0 0 1-37.461334 44.373334l-3.626666-3.029334-101.589334-100.949333a29.141333 29.141333 0 0 1 37.504-44.416z m-465.493333-9.728c10.24 10.24 11.178667 26.24 2.986667 37.632l-3.114667 3.584-101.589333 100.949333a29.184 29.184 0 0 1-44.245334-37.717333l3.114667-3.626667 101.546667-100.949333a29.184 29.184 0 0 1 41.301333 0.128z m223.018667-433.493333a242.261333 242.261333 0 0 1 242.346666 242.176 242.261333 242.261333 0 0 1-242.346666 242.218666 242.261333 242.261333 0 0 1-242.346667-242.218666 242.261333 242.261333 0 0 1 242.346667-242.218667z m0 58.282666a183.936 183.936 0 0 0-184.021334 183.893334c0 101.546667 82.389333 183.893333 184.021334 183.893333a183.936 183.936 0 0 0 184.021333-183.893333c0-101.546667-82.389333-183.893333-184.021333-183.893334z m442.794666 154.752a29.141333 29.141333 0 0 1 4.309334 57.984l-4.266667 0.298667h-143.36a29.141333 29.141333 0 0 1-4.266667-57.984l4.266667-0.298667h143.36z m-737.024 0a29.141333 29.141333 0 0 1 4.309334 57.984l-4.266667 0.298667h-143.36a29.141333 29.141333 0 0 1-4.266667-57.984l4.266667-0.298667h143.36z m646.656-291.413333c10.24 10.24 11.306667 26.24 3.072 37.632l-3.072 3.626667-100.992 100.949333a29.184 29.184 0 0 1-44.373333-37.632l3.114667-3.584 100.992-100.949333a29.184 29.184 0 0 1 41.258666 0zM158.72 167.466667a29.184 29.184 0 0 1 41.258667 0l101.589333 101.546666a29.141333 29.141333 0 1 1-41.258667 41.216L158.72 208.64a29.141333 29.141333 0 0 1 0-41.216zM505.813333 42.666667c14.677333 0 26.794667 10.794667 28.885334 24.832l0.298666 4.309333V215.04a29.141333 29.141333 0 0 1-58.026666 4.266667l-0.298667-4.266667V71.808c0-16.085333 13.056-29.141333 29.141333-29.141333z" fill="#B5D4FF" /></svg>